# xmcd
#
# Track frame offsets:
#	150
#	23424
#	41728
#	57952
#	79767
#	98650
#	116966
#	139287
#	163553
#	179914
#
# Disc length: 2588 seconds
#
# Revision: 0
# Processed by: cddbd v1.5.2PL0 Copyright (c) Steve Scherf et al.
# Submitted via: EasyCDDAExtractor 2011.0.0.0
#
DISCID=860a1a0a
DTITLE=DODO - Benny Bossa
DYEAR=2011
DGENRE=
TTITLE0=Svantes sorte vise
TTITLE1=Svante i stormagasinet
TTITLE2=Svantes allergiske vise
TTITLE3=Barndommens land
TTITLE4=Bennys Bossa
TTITLE5=Svantes drikkevise
TTITLE6=Hymne til natten
TTITLE7=Da jeg mødte dig
TTITLE8=Skvalderkål blues
TTITLE9=Årstiderne
EXTD=
EXTT0=
EXTT1=
EXTT2=
EXTT3=
EXTT4=
EXTT5=
EXTT6=
EXTT7=
EXTT8=
EXTT9=
PLAYORDER=
